# xmcd
# 
# Track frame offsets:
#     150
#     13181
#     25482
#     37236
#     49198
#     62092
#     73604
#     85612
#     94303
#     101952
#     112561
#     124348
#     135385
#     150060
#     158505
#     168590
#     179960
#     191501
# 
# Disc length: 2730
# 
# Revision: 2
# Processed by: cddbd v1.5.2PL0 Copyright (c) Steve Scherf et al.
# Submitted via: fre:ac v1.0.17
# 
DISCID=f10aa812
DTITLE=Jerry Lee Lewis - Great Balls Of Fire
DYEAR=0
DGENRE=Rock and Roll
TTITLE0=Whole Lotta Shakin' Goin' On
TTITLE1=Breathless
TTITLE2=Money (That's What I Need)
TTITLE3=Your Lovin' Ways
TTITLE4=Fools Like Me
TTITLE5=Frankie and Johnny
TTITLE6=Break Up
TTITLE7=Invitation To Your Party
TTITLE8=Waiting For A Train
TTITLE9=Teenage Letter
TTITLE10=How's My Ex Treating You
TTITLE11=Carry Me Back To Old Virginia
TTITLE12=I've Been Twistin'
TTITLE13=Lovin' Up A Storm
TTITLE14=I Get The Blues When It Rains
TTITLE15=Love On Broadway
TTITLE16=I Can't Seem To Say Goodbye
TTITLE17=You Win Again
EXTD=
EXTT0=
EXTT1=
EXTT2=
EXTT3=
EXTT4=
EXTT5=
EXTT6=
EXTT7=
EXTT8=
EXTT9=
EXTT10=
EXTT11=
EXTT12=
EXTT13=
EXTT14=
EXTT15=
EXTT16=
EXTT17=
PLAYORDER=
